<svg class="Mui-src-portals-mobile-components-Banner--src-portals-mobile-components-Banner-indextsx-logo" width="48" height="48" viewBox="0 0 48 48" fill="none"><g id="48*48"><mask id="mask0" mask-type="alpha" maskUnits="userSpaceOnUse" x="0" y="0" width="48" height="48"><path id="Clip 2" fill-rule="evenodd" clip-rule="evenodd" d="M0 3.05176e-05H48V47.9998H0V3.05176e-05Z" fill="white"></path></mask><g mask="url(#mask0)"><path id="Fill 1" fill-rule="evenodd" clip-rule="evenodd" d="M42.9972 5.015C38.4683 0.503953 31.9571 0 24.0001 0C16.0329 0 9.51214 0.509889 4.98532 5.03265C0.459587 9.55464 0 16.0649 0 24.0234C0 31.9816 0.459587 38.4954 4.98719 43.018C9.51418 47.5421 16.0334 47.9998 24.0001 47.9998C31.9665 47.9998 38.4858 47.5421 43.013 43.018C47.5398 38.4939 48 31.9816 48 24.0234C48 16.0548 47.5343 9.53698 42.9972 5.015Z" fill="#FF6900"></path><path id="Fill 3" fill-rule="evenodd" clip-rule="evenodd" d="M22.2335 32.8946C22.2335 33.0556 22.0979 33.1892 21.9328 33.1892H17.8394C17.6715 33.1892 17.5353 33.0556 17.5353 32.8946V22.19C17.5353 22.0276 17.6715 21.8946 17.8394 21.8946H21.9328C22.0979 21.8946 22.2335 22.0276 22.2335 22.19V32.8946Z" fill="white"></path><path id="Fill 5" fill-rule="evenodd" clip-rule="evenodd" d="M30.248 32.8946C30.248 33.0556 30.1118 33.1892 29.9461 33.1892H26.0497C25.8826 33.1892 25.7464 33.0556 25.7464 32.8946V32.8546V23.6589C25.7423 22.0465 25.6501 20.3892 24.8177 19.5562C24.1019 18.8383 22.7672 18.6738 21.3787 18.6393H14.3157C14.149 18.6393 14.0144 18.7733 14.0144 18.9345V31.9287V32.8946C14.0144 33.0556 13.8769 33.1892 13.7102 33.1892H9.81124C9.64471 33.1892 9.51068 33.0556 9.51068 32.8946V15.1074C9.51068 14.9441 9.64471 14.8113 9.81124 14.8113H21.0604C24.0003 14.8113 27.0737 14.9454 28.5895 16.4632C30.1118 17.9877 30.248 21.0556 30.248 23.9989V32.8946Z" fill="white"></path><path id="Fill 7" fill-rule="evenodd" clip-rule="evenodd" d="M38.2749 32.8946C38.2749 33.0556 38.1372 33.1892 37.9721 33.1892H34.0738C33.9072 33.1892 33.7718 33.0556 33.7718 32.8946V15.1074C33.7718 14.9441 33.9072 14.8113 34.0738 14.8113H37.9721C38.1372 14.8113 38.2749 14.9441 38.2749 15.1074V32.8946Z" fill="white"></path></g></g></svg>